<?xml version="1.0" encoding="UTF-8" standalone="no"?>
<!DOCTYPE svg PUBLIC "-//W3C//DTD SVG 1.1//EN" "http://www.w3.org/Graphics/SVG/1.1/DTD/svg11.dtd">
<svg version="1.1" xmlns="http://www.w3.org/2000/svg" xmlns:xlink="http://www.w3.org/1999/xlink" preserveAspectRatio="xMidYMid meet" viewBox="79 39 484 564" width="480" height="560"><defs><path d="M320 600L123.63 534.75L80 40L560 40L516.38 534.75L320 600ZM175.88 199.13L329.5 199.13L321.38 202.5L181.25 260.88L185.75 318.75L186 318.63L186 318.75L393.87 319.38L389.25 396.38L320.87 415.63L255.12 399L251.12 351.13L190 351.13L198 443.5L321.5 480L444.25 444.12L460.25 260.88L320.88 260.88L321.25 260.75L465.38 199.13L471.38 140L168.63 140L175.88 199.13Z" id="b2HOI26QW5"></path></defs><g><g><use xlink:href="#b2HOI26QW5" opacity="1" fill="#119cd3" fill-opacity="1"></use><g><use xlink:href="#b2HOI26QW5" opacity="1" fill-opacity="0" stroke="#000000" stroke-width="1" stroke-opacity="0"></use></g></g></g></svg>