<?xml version="1.0" encoding="UTF-8" standalone="no"?>
<!DOCTYPE svg PUBLIC "-//W3C//DTD SVG 1.1//EN" "http://www.w3.org/Graphics/SVG/1.1/DTD/svg11.dtd">
<svg version="1.1" xmlns="http://www.w3.org/2000/svg" xmlns:xlink="http://www.w3.org/1999/xlink" preserveAspectRatio="xMidYMid meet" viewBox="38.99900399207188 39.05110266337626 564.0019920158562 563.943646162196" width="560" height="559.94"><defs><path d="M345 50.56C330.91 36.48 308.08 36.48 293.99 50.56C290.6 53.95 273.66 70.88 243.16 101.35C281.8 139.99 303.27 161.46 307.56 165.75C341.39 154.33 373.41 186.71 361.8 220.35C368.01 226.56 417.67 276.22 423.88 282.43C466.66 267.68 500.35 321.18 468.21 353.29C435.1 386.4 380.45 349.7 398.21 306.61C394.35 302.76 375.04 283.47 340.28 248.75C340.28 340.14 340.28 390.91 340.28 401.06C371.9 416.74 368.1 453.38 351.63 469.81C334.86 486.56 307.7 486.56 290.94 469.81C268.98 447.81 277.1 411.18 305 399.81C305 384.44 305 261.44 305 246.06C279 235.43 274.25 207.64 281.7 189.81C277.47 185.58 256.31 164.39 218.21 126.25C117.62 226.85 61.74 282.75 50.56 293.92C36.48 308.01 36.48 330.85 50.56 344.94C75.01 369.39 270.62 564.99 295.08 589.44C309.16 603.51 331.99 603.51 346.08 589.44C370.41 565.1 565.1 370.41 589.44 346.07C603.52 331.99 603.52 309.15 589.44 295.06C540.55 246.16 369.44 75.01 345 50.56Z" id="e71NL8I5q"></path></defs><g><g><use xlink:href="#e71NL8I5q" opacity="1" fill="#e94e31" fill-opacity="1"></use><g><use xlink:href="#e71NL8I5q" opacity="1" fill-opacity="0" stroke="#000000" stroke-width="1" stroke-opacity="0"></use></g></g></g></svg>