<?xml version="1.0" encoding="UTF-8" standalone="no"?>
<!DOCTYPE svg PUBLIC "-//W3C//DTD SVG 1.1//EN" "http://www.w3.org/Graphics/SVG/1.1/DTD/svg11.dtd">
<svg version="1.1" xmlns="http://www.w3.org/2000/svg" xmlns:xlink="http://www.w3.org/1999/xlink" preserveAspectRatio="xMidYMid meet" viewBox="38.99999999999994 36.89256198347107 564 564" width="560" height="560"><defs><path d="M544.92 38.09L547.34 38.34L549.73 38.68L552.09 39.11L554.41 39.64L556.71 40.25L558.96 40.95L561.18 41.74L563.35 42.61L565.48 43.56L567.57 44.59L569.61 45.7L571.6 46.88L573.54 48.14L575.43 49.47L577.26 50.87L579.04 52.34L580.76 53.87L582.42 55.47L584.02 57.13L585.55 58.85L587.02 60.63L588.42 62.46L589.75 64.35L591.01 66.29L592.19 68.28L593.3 70.32L594.33 72.41L595.28 74.54L596.15 76.72L596.94 78.93L597.64 81.19L598.26 83.48L598.78 85.8L599.21 88.16L599.56 90.55L599.8 92.97L599.95 95.42L600 97.89L600 537.89L599.95 540.36L599.8 542.81L599.56 545.23L599.21 547.62L598.78 549.98L598.26 552.31L597.64 554.6L596.94 556.85L596.15 559.07L595.28 561.24L594.33 563.37L593.3 565.46L592.19 567.5L591.01 569.49L589.75 571.43L588.42 573.32L587.02 575.16L585.55 576.93L584.02 578.65L582.42 580.31L580.76 581.91L579.04 583.45L577.26 584.91L575.43 586.31L573.54 587.64L571.6 588.9L569.61 590.08L567.57 591.19L565.48 592.22L563.35 593.18L561.18 594.05L558.96 594.83L556.71 595.53L554.41 596.15L552.09 596.67L549.73 597.11L547.34 597.45L544.92 597.69L542.47 597.84L540 597.89L100 597.89L97.53 597.84L95.08 597.69L92.66 597.45L90.27 597.11L87.91 596.67L85.59 596.15L83.29 595.53L81.04 594.83L78.82 594.05L76.65 593.18L74.52 592.22L72.43 591.19L70.39 590.08L68.4 588.9L66.46 587.64L64.57 586.31L62.74 584.91L60.96 583.45L59.24 581.91L57.58 580.31L55.98 578.65L54.45 576.93L52.98 575.16L51.58 573.32L50.25 571.43L48.99 569.49L47.81 567.5L46.7 565.46L45.67 563.37L44.72 561.24L43.85 559.07L43.06 556.85L42.36 554.6L41.74 552.31L41.22 549.98L40.79 547.62L40.44 545.23L40.2 542.81L40.05 540.36L40 537.89L40 97.89L40.05 95.42L40.2 92.97L40.44 90.55L40.79 88.16L41.22 85.8L41.74 83.48L42.36 81.19L43.06 78.93L43.85 76.72L44.72 74.54L45.67 72.41L46.7 70.32L47.81 68.28L48.99 66.29L50.25 64.35L51.58 62.46L52.98 60.63L54.45 58.85L55.98 57.13L57.58 55.47L59.24 53.87L60.96 52.34L62.74 50.87L64.57 49.47L66.46 48.14L68.4 46.88L70.39 45.7L72.43 44.59L74.52 43.56L76.65 42.61L78.82 41.74L81.04 40.95L83.29 40.25L85.59 39.64L87.91 39.11L90.27 38.68L92.66 38.34L95.08 38.09L97.53 37.94L100 37.89L540 37.89L542.47 37.94L544.92 38.09ZM459.35 292.24L455.99 292.52L452.7 292.9L449.48 293.38L446.33 293.97L443.25 294.66L440.24 295.45L437.31 296.34L434.44 297.32L431.66 298.4L428.95 299.56L426.31 300.82L423.76 302.16L421.29 303.59L418.9 305.11L416.59 306.7L414.36 308.37L412.22 310.13L410.17 311.96L408.21 313.86L406.33 315.83L404.55 317.88L402.85 319.99L401.25 322.17L399.75 324.41L398.34 326.72L397.02 329.09L395.81 331.51L394.69 333.99L393.67 336.53L392.76 339.12L391.95 341.76L391.24 344.45L390.64 347.19L390.14 349.97L389.75 352.8L389.47 355.67L389.31 358.57L389.25 361.52L389.3 364.69L389.44 367.78L389.67 370.79L389.99 373.72L390.4 376.58L390.9 379.35L391.49 382.06L392.17 384.69L392.93 387.25L393.77 389.74L394.7 392.16L395.7 394.52L396.79 396.82L397.96 399.05L399.2 401.22L400.53 403.34L401.92 405.39L403.4 407.39L404.94 409.34L406.56 411.24L408.25 413.08L410.01 414.88L411.84 416.63L413.74 418.33L415.7 420L417.73 421.62L419.83 423.2L421.98 424.74L424.2 426.25L426.48 427.72L428.82 429.15L431.22 430.56L433.67 431.94L436.19 433.29L438.75 434.61L441.37 435.91L444.05 437.19L446.77 438.44L449.55 439.67L452.38 440.89L465.5 446.52L467.29 447.31L469.04 448.08L470.76 448.84L472.44 449.59L474.08 450.33L475.67 451.07L477.23 451.79L478.76 452.51L480.23 453.22L481.67 453.94L483.07 454.65L484.43 455.36L485.74 456.08L487.01 456.79L488.24 457.51L489.43 458.24L490.57 458.98L491.67 459.73L492.73 460.48L493.73 461.25L494.7 462.03L495.62 462.83L496.49 463.65L497.31 464.48L498.09 465.33L498.83 466.21L499.51 467.11L500.15 468.03L500.73 468.97L501.27 469.95L501.76 470.95L502.2 471.99L502.59 473.05L502.93 474.15L503.22 475.28L503.45 476.45L503.64 477.66L503.77 478.9L503.85 480.19L503.87 481.52L503.85 482.64L503.77 483.75L503.64 484.85L503.46 485.92L503.23 486.98L502.95 488.01L502.62 489.03L502.25 490.03L501.82 491.01L501.35 491.96L500.83 492.89L500.26 493.8L499.65 494.69L499 495.55L498.3 496.39L497.55 497.2L496.77 497.99L495.94 498.75L495.07 499.48L494.16 500.19L493.2 500.87L492.21 501.51L491.18 502.13L490.1 502.72L488.99 503.28L487.85 503.81L486.66 504.3L485.44 504.76L484.18 505.19L482.89 505.58L481.56 505.94L480.2 506.27L478.8 506.55L477.37 506.81L475.91 507.02L474.41 507.2L472.89 507.34L471.33 507.44L469.74 507.5L468.12 507.52L466.21 507.49L464.33 507.42L462.49 507.29L460.69 507.12L458.93 506.9L457.21 506.63L455.52 506.31L453.87 505.95L452.26 505.55L450.69 505.1L449.14 504.61L447.64 504.08L446.16 503.5L444.72 502.89L443.31 502.24L441.93 501.55L440.58 500.82L439.26 500.05L437.97 499.25L436.7 498.41L435.47 497.54L434.26 496.63L433.08 495.69L431.92 494.72L430.78 493.72L429.68 492.69L428.59 491.62L427.53 490.53L426.48 489.41L425.46 488.27L424.46 487.1L423.48 485.9L422.52 484.68L421.57 483.44L420.65 482.17L419.74 480.88L418.84 479.57L417.96 478.24L417.1 476.89L416.25 475.52L373.37 500.27L374.56 502.54L375.8 504.79L377.11 507L378.48 509.18L379.9 511.33L381.39 513.45L382.95 515.53L384.56 517.57L386.23 519.57L387.97 521.53L389.77 523.45L391.63 525.33L393.55 527.16L395.53 528.94L397.58 530.68L399.69 532.36L401.86 534L404.09 535.58L406.39 537.11L408.75 538.58L411.17 539.99L413.66 541.35L416.2 542.65L418.82 543.88L421.49 545.05L424.23 546.16L427.03 547.2L429.89 548.17L432.82 549.08L435.81 549.91L438.87 550.67L441.99 551.36L445.17 551.97L448.42 552.5L451.73 552.96L455.1 553.34L458.54 553.63L462.05 553.85L465.62 553.97L469.25 554.02L472.97 553.97L476.63 553.82L480.25 553.58L483.81 553.24L487.31 552.81L490.76 552.28L494.14 551.65L497.46 550.94L500.72 550.12L503.9 549.22L507.02 548.22L510.06 547.13L513.03 545.94L515.92 544.67L518.73 543.3L521.46 541.84L524.11 540.29L526.67 538.66L529.14 536.93L531.52 535.11L533.8 533.21L535.99 531.21L538.08 529.13L540.07 526.96L541.96 524.71L543.74 522.37L545.42 519.94L546.98 517.43L548.44 514.83L549.78 512.15L551 509.38L552.1 506.53L553.08 503.6L553.94 500.58L554.68 497.48L555.28 494.3L555.76 491.04L556.1 487.7L556.31 484.27L556.37 480.77L556.33 477.51L556.19 474.35L555.95 471.27L555.63 468.27L555.21 465.36L554.7 462.53L554.1 459.78L553.4 457.1L552.62 454.5L551.75 451.96L550.79 449.5L549.74 447.1L548.6 444.77L547.38 442.5L546.07 440.29L544.67 438.14L543.18 436.04L541.61 434L539.96 432.01L538.22 430.06L536.4 428.17L534.49 426.32L532.5 424.51L530.43 422.74L528.27 421L526.04 419.31L523.72 417.64L521.33 416.01L518.85 414.41L516.3 412.83L513.66 411.27L510.95 409.74L508.16 408.23L505.29 406.74L502.35 405.26L499.33 403.79L496.24 402.34L493.06 400.89L489.82 399.45L486.5 398.02L473.37 392.39L471.7 391.66L470.08 390.94L468.5 390.22L466.97 389.52L465.49 388.83L464.05 388.14L462.66 387.46L461.32 386.78L460.02 386.11L458.77 385.44L457.57 384.77L456.4 384.1L455.29 383.43L454.22 382.76L453.19 382.08L452.2 381.4L451.26 380.71L450.37 380.01L449.51 379.31L448.7 378.6L447.93 377.87L447.21 377.13L446.52 376.38L445.88 375.62L445.28 374.84L444.72 374.04L444.2 373.22L443.72 372.38L443.28 371.53L442.88 370.65L442.52 369.75L442.19 368.82L441.91 367.87L441.67 366.89L441.46 365.88L441.3 364.85L441.17 363.78L441.07 362.69L441.02 361.56L441 360.39L441.02 359.44L441.07 358.5L441.16 357.58L441.29 356.66L441.45 355.77L441.64 354.88L441.87 354.01L442.14 353.16L442.43 352.32L442.76 351.5L443.13 350.69L443.52 349.91L443.95 349.14L444.41 348.4L444.9 347.67L445.42 346.96L445.97 346.28L446.55 345.62L447.16 344.98L447.8 344.36L448.47 343.77L449.16 343.2L449.89 342.66L450.64 342.14L451.42 341.65L452.23 341.19L453.06 340.75L453.92 340.34L454.8 339.96L455.71 339.62L456.65 339.3L457.61 339.01L458.59 338.75L459.6 338.53L460.63 338.34L461.69 338.18L462.76 338.05L463.86 337.96L464.98 337.91L466.12 337.89L467.25 337.9L468.35 337.94L469.44 338L470.51 338.09L471.55 338.2L472.58 338.33L473.6 338.5L474.59 338.68L475.57 338.9L476.53 339.14L477.48 339.41L478.41 339.7L479.33 340.03L480.23 340.38L481.12 340.76L481.99 341.17L482.85 341.61L483.7 342.07L484.54 342.57L485.36 343.1L486.17 343.65L486.97 344.24L487.76 344.86L488.54 345.51L489.31 346.19L490.08 346.9L490.83 347.64L491.57 348.42L492.31 349.23L493.04 350.07L493.76 350.95L494.47 351.86L495.18 352.8L495.88 353.78L496.58 354.8L497.27 355.84L497.96 356.93L498.64 358.05L499.32 359.2L500 360.39L541 334.14L539.69 331.89L538.36 329.71L537 327.6L535.62 325.55L534.21 323.58L532.77 321.67L531.31 319.83L529.82 318.05L528.3 316.34L526.75 314.69L525.18 313.11L523.58 311.59L521.95 310.14L520.29 308.74L518.6 307.41L516.88 306.14L515.14 304.93L513.36 303.77L511.56 302.68L509.72 301.64L507.85 300.66L505.95 299.74L504.03 298.87L502.07 298.06L500.07 297.3L498.05 296.6L496 295.95L493.91 295.35L491.79 294.81L489.64 294.31L487.45 293.87L485.23 293.47L482.98 293.12L480.69 292.83L478.37 292.58L476.02 292.37L473.63 292.22L471.2 292.11L468.74 292.04L466.25 292.02L462.77 292.07L459.35 292.24ZM292.12 473.89L292.1 475.83L292.04 477.7L291.94 479.5L291.8 481.23L291.62 482.89L291.4 484.48L291.14 486.01L290.84 487.47L290.51 488.86L290.14 490.2L289.73 491.47L289.28 492.68L288.8 493.83L288.29 494.93L287.73 495.96L287.15 496.95L286.53 497.87L285.88 498.75L285.19 499.57L284.47 500.35L283.72 501.07L282.93 501.74L282.12 502.37L281.27 502.95L280.39 503.49L279.49 503.98L278.55 504.44L277.58 504.85L276.59 505.22L275.57 505.55L274.52 505.85L273.44 506.1L272.33 506.33L271.2 506.52L270.04 506.68L268.86 506.8L267.65 506.9L266.42 506.97L265.16 507L263.87 507.02L262.54 506.99L261.23 506.93L259.97 506.81L258.74 506.66L257.55 506.46L256.4 506.22L255.27 505.93L254.18 505.61L253.12 505.25L252.1 504.86L251.1 504.42L250.12 503.95L249.18 503.44L248.26 502.9L247.37 502.33L246.5 501.73L245.65 501.09L244.82 500.42L244.02 499.73L243.23 499L242.47 498.25L241.72 497.47L240.99 496.67L240.27 495.84L239.56 494.99L238.87 494.11L238.2 493.22L237.53 492.3L236.87 491.36L236.22 490.41L235.58 489.43L234.95 488.44L234.32 487.43L233.7 486.41L233.08 485.38L232.46 484.33L231.85 483.27L231.23 482.19L230.62 481.11L230 480.02L187.12 505.89L188.08 507.86L189.09 509.81L190.14 511.74L191.24 513.65L192.38 515.53L193.57 517.39L194.81 519.22L196.1 521.03L197.43 522.8L198.82 524.54L200.25 526.25L201.74 527.92L203.28 529.55L204.87 531.15L206.51 532.71L208.2 534.23L209.95 535.7L211.75 537.13L213.61 538.51L215.52 539.85L217.48 541.13L219.5 542.36L221.58 543.55L223.72 544.67L225.91 545.74L228.16 546.76L230.48 547.71L232.85 548.61L235.28 549.44L237.77 550.21L240.32 550.91L242.93 551.54L245.61 552.11L248.35 552.61L251.15 553.03L254.01 553.38L256.94 553.66L259.94 553.86L263 553.98L266.12 554.02L268.45 553.97L270.75 553.82L273.04 553.57L275.3 553.22L277.55 552.78L279.78 552.23L282 551.59L284.19 550.84L286.37 550L288.52 549.06L290.66 548.01L292.78 546.87L294.89 545.63L296.97 544.29L299.04 542.86L301.08 541.32L303.11 539.68L305.13 537.94L307.12 536.11L309.09 534.17L311.05 532.14L312.99 530.01L314.91 527.77L316.81 525.44L318.69 523.01L320.56 520.48L322.41 517.85L324.23 515.12L326.04 512.3L327.84 509.37L329.61 506.34L331.36 503.22L333.1 499.99L334.82 496.67L336.52 493.25L338.2 489.72L339.87 486.1L341.51 482.38L343.14 478.56L344.75 474.64L344.75 295.02L292.12 295.02L292.12 473.89Z" id="a9KIFikBz"></path></defs><g><g><use xlink:href="#a9KIFikBz" opacity="1" fill="#f7d437" fill-opacity="1"></use><g><use xlink:href="#a9KIFikBz" opacity="1" fill-opacity="0" stroke="#000000" stroke-width="1" stroke-opacity="0"></use></g></g></g></svg>