<?xml version="1.0" encoding="UTF-8" standalone="no"?>
<!DOCTYPE svg PUBLIC "-//W3C//DTD SVG 1.1//EN" "http://www.w3.org/Graphics/SVG/1.1/DTD/svg11.dtd">
<svg version="1.1" xmlns="http://www.w3.org/2000/svg" xmlns:xlink="http://www.w3.org/1999/xlink" preserveAspectRatio="xMidYMid meet" viewBox="0 0 640 640" width="640" height="640"><defs><path d="M454.7 40.33L457.69 40.69L460.62 41.19L463.49 41.83L466.29 42.61L469.01 43.52L471.67 44.58L474.25 45.78L476.75 47.13L479.26 48.68L481.69 50.39L484.02 52.24L486.27 54.23L488.42 56.36L490.48 58.63L492.45 61.04L494.33 63.59L496.12 66.26L497.82 69.06L499.43 71.99L500.94 75.05L502.37 78.22L503.7 81.52L504.94 84.93L506.08 88.45L507.14 92.09L508.1 95.84L508.97 99.7L509.75 103.66L510.43 107.72L511.03 111.88L511.53 116.14L511.93 120.5L512.24 124.95L512.46 129.49L512.59 134.12L512.62 138.84L512.56 143.64L512.4 148.52L512.15 153.47L511.8 158.51L511.36 163.62L510.83 168.8L510.2 174.05L509.47 179.36L508.65 184.75L507.74 190.19L506.73 195.69L505.63 201.25L505.55 201.6L505.47 201.94L505.4 202.29L505.32 202.64L505.25 202.98L505.17 203.33L505.1 203.68L505.02 204.03L504.95 204.37L504.87 204.72L504.8 205.07L504.72 205.41L504.65 205.76L504.57 206.11L504.49 206.45L504.42 206.8L504.34 207.15L504.26 207.49L504.19 207.84L504.11 208.19L504.03 208.53L503.95 208.88L503.88 209.23L503.8 209.58L503.72 209.92L503.64 210.27L503.56 210.62L503.48 210.96L503.4 211.31L503.32 211.66L503.24 212L503.16 212.35L503.08 212.7L503 213.04L502.92 213.39L502.83 213.74L502.75 214.08L502.67 214.43L502.58 214.78L502.5 215.13L503.01 215.28L503.51 215.43L504.02 215.58L504.53 215.73L505.03 215.88L505.54 216.03L506.04 216.19L506.55 216.34L507.06 216.49L507.56 216.65L508.07 216.8L508.58 216.96L509.08 217.11L509.59 217.27L510.09 217.43L510.6 217.58L511.11 217.74L511.61 217.9L512.12 218.06L512.63 218.22L513.13 218.38L513.64 218.54L514.14 218.7L514.65 218.86L515.16 219.02L515.66 219.18L516.17 219.35L516.67 219.51L517.18 219.67L517.69 219.84L518.19 220L518.7 220.17L519.21 220.33L519.71 220.5L520.22 220.66L520.73 220.83L521.23 221L521.74 221.16L522.24 221.33L522.75 221.5L527.81 223.28L532.81 225.11L537.72 226.98L542.56 228.9L547.31 230.87L551.98 232.88L556.56 234.94L561.06 237.03L565.45 239.17L569.76 241.35L573.96 243.56L578.06 245.82L582.06 248.11L585.95 250.43L589.73 252.79L593.4 255.19L596.95 257.61L600.38 260.07L603.69 262.55L606.88 265.06L609.93 267.6L612.86 270.17L615.65 272.76L618.31 275.37L620.83 278.01L623.21 280.67L625.44 283.35L627.53 286.05L629.46 288.76L631.24 291.5L632.87 294.24L634.33 297.01L635.64 299.78L636.78 302.57L637.75 305.37L638.55 308.18L639.18 311L639.63 313.83L639.91 316.66L640 319.5L639.9 322.47L639.61 325.43L639.13 328.39L638.46 331.34L637.61 334.29L636.58 337.22L635.37 340.14L633.99 343.05L632.43 345.94L630.71 348.82L628.82 351.68L626.77 354.52L624.55 357.35L622.19 360.15L619.66 362.93L616.99 365.69L614.17 368.42L611.21 371.13L608.1 373.82L604.86 376.47L601.48 379.09L597.97 381.69L594.33 384.25L590.56 386.78L586.67 389.27L582.66 391.73L578.54 394.14L574.3 396.53L569.95 398.87L565.49 401.17L560.92 403.43L556.26 405.64L551.49 407.81L546.63 409.93L541.68 412.01L536.63 414.03L531.5 416.01L526.29 417.93L521 419.81L515.62 421.63L515.33 421.72L515.04 421.81L514.75 421.91L514.46 422L514.17 422.09L513.88 422.19L513.59 422.28L513.3 422.37L513.01 422.47L512.72 422.56L512.43 422.65L512.13 422.75L511.84 422.84L511.55 422.93L511.26 423.02L510.97 423.12L510.67 423.21L510.38 423.3L510.09 423.39L509.8 423.48L509.5 423.58L509.21 423.67L508.92 423.76L508.62 423.85L508.33 423.94L508.03 424.03L507.74 424.12L507.44 424.21L507.15 424.3L506.85 424.38L506.56 424.47L506.26 424.56L505.96 424.65L505.67 424.74L505.37 424.82L505.07 424.91L504.77 424.99L504.47 425.08L504.17 425.17L503.87 425.25L503.98 425.68L504.08 426.11L504.18 426.54L504.28 426.97L504.38 427.4L504.49 427.83L504.59 428.26L504.69 428.69L504.78 429.11L504.88 429.54L504.98 429.97L505.08 430.39L505.18 430.82L505.27 431.24L505.37 431.67L505.47 432.09L505.56 432.51L505.66 432.94L505.75 433.36L505.84 433.78L505.94 434.2L506.03 434.62L506.12 435.04L506.22 435.47L506.31 435.88L506.4 436.3L506.49 436.72L506.58 437.14L506.67 437.56L506.76 437.98L506.85 438.39L506.94 438.81L507.02 439.23L507.11 439.64L507.2 440.06L507.28 440.47L507.37 440.89L507.46 441.3L507.54 441.71L507.62 442.13L508.65 447.5L509.57 452.83L510.41 458.1L511.15 463.31L511.79 468.47L512.34 473.57L512.8 478.6L513.17 483.57L513.44 488.46L513.62 493.29L513.7 498.05L513.7 502.73L513.6 507.33L513.42 511.85L513.14 516.28L512.77 520.63L512.3 524.89L511.75 529.07L511.11 533.14L510.38 537.13L509.55 541.01L508.64 544.79L507.64 548.47L506.55 552.04L505.36 555.51L504.09 558.86L502.74 562.1L501.29 565.22L499.76 568.23L498.13 571.11L496.42 573.87L494.63 576.51L492.74 579.02L490.77 581.39L488.71 583.63L486.57 585.74L484.33 587.71L482.02 589.53L479.61 591.21L477.13 592.75L474.64 594.1L472.08 595.3L469.45 596.37L466.75 597.3L463.98 598.09L461.14 598.75L458.24 599.27L455.28 599.66L452.25 599.91L449.17 600.03L446.02 600.02L442.82 599.89L439.57 599.62L436.27 599.22L432.91 598.7L429.51 598.05L426.06 597.27L422.57 596.37L419.03 595.35L415.45 594.2L411.84 592.94L408.18 591.55L404.49 590.04L400.77 588.41L397.01 586.67L393.23 584.81L389.42 582.83L385.58 580.74L381.71 578.53L377.83 576.21L373.92 573.78L369.99 571.23L366.05 568.58L362.09 565.82L358.12 562.95L354.14 559.97L350.14 556.88L346.14 553.69L342.14 550.4L338.13 547L337.69 546.62L337.26 546.25L336.83 545.87L336.4 545.5L335.97 545.12L335.54 544.74L335.11 544.36L334.68 543.98L334.25 543.6L333.82 543.22L333.39 542.84L332.96 542.46L332.53 542.08L332.1 541.7L331.67 541.32L331.24 540.93L330.81 540.55L330.39 540.16L329.96 539.78L329.53 539.39L329.1 539L328.68 538.62L328.25 538.23L327.83 537.84L327.4 537.45L326.98 537.06L326.56 536.67L326.14 536.27L325.71 535.88L325.29 535.49L324.87 535.09L324.45 534.7L324.03 534.3L323.62 533.9L323.2 533.5L322.78 533.11L322.37 532.71L321.95 532.3L321.54 531.9L321.13 531.5L320.8 531.82L320.47 532.14L320.14 532.45L319.81 532.77L319.48 533.08L319.16 533.4L318.83 533.71L318.5 534.02L318.17 534.33L317.84 534.64L317.52 534.95L317.19 535.26L316.86 535.57L316.53 535.88L316.2 536.18L315.88 536.49L315.55 536.79L315.22 537.1L314.89 537.4L314.56 537.7L314.23 538.01L313.91 538.31L313.58 538.61L313.25 538.91L312.92 539.21L312.59 539.5L312.27 539.8L311.94 540.1L311.61 540.4L311.28 540.69L310.95 540.99L310.63 541.28L310.3 541.58L309.97 541.87L309.64 542.17L309.31 542.46L308.98 542.75L308.66 543.04L308.33 543.33L308 543.63L303.85 547.2L299.7 550.67L295.55 554.03L291.4 557.28L287.26 560.41L283.12 563.44L278.99 566.36L274.87 569.16L270.76 571.84L266.66 574.41L262.59 576.87L258.53 579.2L254.5 581.42L250.49 583.51L246.5 585.49L242.55 587.34L238.62 589.07L234.73 590.68L230.88 592.16L227.06 593.52L223.29 594.74L219.55 595.84L215.86 596.81L212.22 597.65L208.63 598.36L205.09 598.94L201.6 599.38L198.17 599.69L194.8 599.86L191.49 599.89L188.25 599.79L185.06 599.55L181.95 599.17L178.91 598.65L175.94 597.98L173.04 597.18L170.22 596.23L167.48 595.13L164.82 593.89L162.25 592.5L159.84 591.02L157.51 589.4L155.26 587.65L153.1 585.78L151.03 583.77L149.03 581.64L147.13 579.39L145.31 577.01L143.57 574.52L141.92 571.91L140.35 569.18L138.87 566.35L137.48 563.4L136.17 560.34L134.94 557.17L133.81 553.9L132.75 550.53L131.79 547.05L130.9 543.48L130.11 539.81L129.4 536.05L128.78 532.19L128.24 528.24L127.79 524.21L127.42 520.09L127.15 515.88L126.96 511.59L126.85 507.22L126.83 502.77L126.9 498.25L127.06 493.65L127.3 488.98L127.63 484.23L128.04 479.43L128.55 474.55L129.14 469.61L129.82 464.61L130.58 459.55L131.43 454.43L132.38 449.25L132.49 448.68L132.6 448.11L132.71 447.54L132.83 446.97L132.94 446.4L133.06 445.83L133.17 445.27L133.29 444.7L133.41 444.14L133.53 443.57L133.64 443.01L133.76 442.44L133.88 441.88L134 441.32L134.12 440.76L134.24 440.2L134.36 439.63L134.49 439.07L134.61 438.51L134.73 437.95L134.86 437.39L134.98 436.83L135.11 436.27L135.24 435.71L135.36 435.15L135.49 434.6L135.62 434.04L135.75 433.48L135.88 432.92L136.01 432.36L136.15 431.8L136.28 431.24L136.41 430.68L136.55 430.12L136.68 429.56L136.82 429L136.96 428.44L137.1 427.87L137.23 427.31L137.38 426.75L136.94 426.63L136.51 426.5L136.08 426.38L135.65 426.26L135.22 426.13L134.8 426L134.37 425.88L133.94 425.75L133.51 425.62L133.08 425.49L132.66 425.36L132.23 425.23L131.8 425.09L131.38 424.96L130.95 424.83L130.53 424.7L130.1 424.56L129.68 424.43L129.25 424.29L128.83 424.16L128.4 424.02L127.98 423.88L127.56 423.75L127.13 423.61L126.71 423.47L126.29 423.33L125.86 423.19L125.44 423.06L125.02 422.92L124.6 422.78L124.17 422.64L123.75 422.5L123.33 422.36L122.91 422.22L122.48 422.08L122.06 421.94L121.64 421.8L121.22 421.66L120.8 421.52L120.38 421.38L115.21 419.57L110.11 417.7L105.09 415.78L100.15 413.8L95.28 411.78L90.51 409.7L85.82 407.58L81.22 405.4L76.71 403.19L72.3 400.92L67.99 398.62L63.78 396.27L59.68 393.88L55.68 391.45L51.8 388.99L48.03 386.49L44.38 383.95L40.85 381.38L37.45 378.79L34.17 376.16L31.02 373.5L28.01 370.81L25.13 368.1L22.39 365.37L19.8 362.61L17.34 359.83L15.04 357.03L12.89 354.22L10.89 351.38L9.05 348.53L7.37 345.67L5.86 342.79L4.51 339.9L3.33 337.01L2.33 334.1L1.5 331.19L0.85 328.27L0.38 325.35L0.1 322.42L0 319.5L0.09 316.67L0.36 313.85L0.8 311.03L1.41 308.22L2.19 305.43L3.13 302.64L4.24 299.86L5.51 297.1L6.94 294.35L8.52 291.61L10.26 288.89L12.14 286.19L14.17 283.51L16.35 280.84L18.67 278.2L21.12 275.58L23.72 272.98L26.44 270.4L29.3 267.85L32.28 265.33L35.39 262.83L38.62 260.36L41.97 257.93L45.44 255.52L49.02 253.14L52.72 250.8L56.52 248.49L60.43 246.22L64.44 243.99L68.55 241.79L72.77 239.63L77.07 237.51L81.47 235.43L85.96 233.39L90.54 231.4L95.2 229.45L99.94 227.55L104.76 225.69L109.65 223.88L114.62 222.13L115.18 221.93L115.73 221.73L116.29 221.54L116.85 221.34L117.41 221.15L117.98 220.95L118.54 220.76L119.11 220.57L119.67 220.37L120.24 220.18L120.82 219.99L121.39 219.8L121.96 219.61L122.54 219.42L123.11 219.23L123.69 219.04L124.27 218.86L124.85 218.67L125.43 218.48L126.02 218.3L126.6 218.11L127.19 217.93L127.77 217.74L128.36 217.56L128.95 217.38L129.54 217.2L130.13 217.02L130.72 216.84L131.31 216.66L131.9 216.48L132.5 216.31L133.09 216.13L133.69 215.95L134.28 215.78L134.88 215.61L135.48 215.43L136.08 215.26L136.68 215.09L137.28 214.92L137.87 214.75L137.74 214.23L137.61 213.7L137.49 213.18L137.36 212.65L137.23 212.13L137.1 211.61L136.98 211.09L136.85 210.56L136.73 210.04L136.61 209.52L136.49 209L136.36 208.48L136.24 207.96L136.12 207.44L136.01 206.91L135.89 206.39L135.77 205.87L135.65 205.35L135.54 204.83L135.42 204.31L135.31 203.79L135.19 203.27L135.08 202.75L134.97 202.23L134.86 201.71L134.75 201.19L134.63 200.67L134.52 200.15L134.42 199.63L134.31 199.11L134.2 198.58L134.09 198.06L133.98 197.54L133.88 197.02L133.77 196.49L133.67 195.97L133.56 195.45L133.46 194.92L133.35 194.4L133.25 193.88L132.26 188.61L131.36 183.41L130.55 178.26L129.83 173.17L129.19 168.15L128.65 163.18L128.19 158.28L127.82 153.46L127.53 148.7L127.34 144.01L127.23 139.4L127.21 134.87L127.27 130.41L127.43 126.04L127.67 121.75L128 117.54L128.41 113.43L128.92 109.4L129.51 105.47L130.19 101.63L130.95 97.88L131.81 94.24L132.75 90.69L133.77 87.25L134.89 83.92L136.09 80.69L137.37 77.57L138.75 74.56L140.21 71.67L141.76 68.89L143.39 66.24L145.11 63.7L146.92 61.28L148.82 58.99L150.8 56.83L152.87 54.8L155.02 52.9L157.26 51.13L159.59 49.49L162 48L164.6 46.59L167.29 45.33L170.05 44.22L172.9 43.26L175.82 42.45L178.82 41.79L181.89 41.28L185.04 40.91L188.25 40.69L191.52 40.62L194.86 40.69L198.27 40.9L201.73 41.25L205.25 41.74L208.83 42.36L212.46 43.13L216.14 44.03L219.87 45.07L223.65 46.24L227.47 47.55L231.33 48.98L235.24 50.55L239.18 52.25L243.16 54.07L247.18 56.03L251.22 58.11L255.3 60.31L259.4 62.64L263.53 65.1L267.68 67.67L271.85 70.37L276.04 73.18L280.25 76.11L284.48 79.16L288.71 82.33L292.96 85.61L297.21 89.01L301.47 92.52L305.73 96.14L310 99.87L310.26 100.11L310.52 100.34L310.79 100.58L311.05 100.82L311.31 101.05L311.57 101.29L311.84 101.53L312.1 101.76L312.36 102L312.62 102.24L312.88 102.48L313.15 102.72L313.41 102.96L313.67 103.2L313.93 103.44L314.19 103.68L314.45 103.92L314.71 104.16L314.97 104.4L315.23 104.64L315.49 104.88L315.75 105.12L316.01 105.37L316.27 105.61L316.53 105.85L316.79 106.09L317.05 106.34L317.31 106.58L317.56 106.82L317.82 107.06L318.08 107.31L318.34 107.55L318.59 107.79L318.85 108.04L319.1 108.28L319.36 108.53L319.61 108.77L319.87 109.01L320.12 109.26L320.37 109.5L320.75 109.13L321.13 108.77L321.5 108.4L321.88 108.04L322.26 107.67L322.64 107.31L323.02 106.94L323.4 106.58L323.79 106.21L324.17 105.85L324.55 105.48L324.94 105.12L325.32 104.76L325.71 104.39L326.1 104.03L326.49 103.67L326.88 103.3L327.27 102.94L327.66 102.58L328.05 102.22L328.44 101.86L328.83 101.5L329.22 101.14L329.62 100.78L330.01 100.42L330.41 100.06L330.8 99.71L331.2 99.35L331.6 98.99L331.99 98.64L332.39 98.28L332.79 97.93L333.19 97.57L333.59 97.22L333.99 96.87L334.39 96.52L334.79 96.17L335.19 95.82L335.6 95.47L336 95.13L340.07 91.63L344.13 88.25L348.19 84.96L352.24 81.79L356.28 78.72L360.3 75.76L364.32 72.92L368.31 70.18L372.29 67.55L376.26 65.04L380.2 62.64L384.11 60.35L388 58.18L391.87 56.13L395.71 54.2L399.51 52.38L403.29 50.69L407.02 49.11L410.73 47.66L414.39 46.33L418.01 45.12L421.6 44.04L425.14 43.09L428.63 42.26L432.07 41.56L435.47 40.99L438.81 40.55L442.1 40.24L445.34 40.06L448.52 40.02L451.64 40.11L454.7 40.33ZM473.65 433.19L471.54 433.65L469.43 434.1L467.31 434.55L465.19 434.98L463.08 435.41L460.96 435.84L458.84 436.25L456.71 436.66L454.59 437.06L452.47 437.45L450.34 437.83L448.22 438.21L446.09 438.58L443.96 438.94L441.83 439.29L439.7 439.64L437.57 439.98L435.44 440.31L433.3 440.64L431.17 440.95L429.03 441.26L426.9 441.57L424.76 441.86L422.62 442.15L420.49 442.43L418.35 442.7L416.21 442.96L414.07 443.22L411.93 443.47L409.78 443.71L407.64 443.94L405.5 444.17L403.35 444.39L401.21 444.6L399.06 444.81L396.92 445L394.77 445.19L392.62 445.38L391.42 447.14L390.21 448.89L389 450.64L387.78 452.39L386.55 454.13L385.32 455.87L384.08 457.61L382.83 459.34L381.58 461.07L380.32 462.79L379.06 464.5L377.79 466.22L376.51 467.93L375.23 469.63L373.95 471.33L372.65 473.03L371.35 474.72L370.05 476.41L368.74 478.09L367.42 479.77L366.1 481.44L364.77 483.11L363.44 484.77L362.1 486.43L360.75 488.09L359.4 489.74L358.04 491.39L356.68 493.03L355.31 494.67L353.94 496.3L352.56 497.93L351.17 499.55L349.78 501.17L348.38 502.78L346.98 504.39L345.57 506L344.15 507.6L342.73 509.2L341.31 510.79L339.87 512.38L340.28 512.75L340.68 513.12L341.08 513.5L341.48 513.87L341.89 514.24L342.29 514.62L342.69 514.99L343.09 515.36L343.49 515.73L343.88 516.1L344.28 516.47L344.68 516.83L345.08 517.2L345.48 517.57L345.88 517.93L346.27 518.3L346.67 518.66L347.07 519.03L347.46 519.39L347.86 519.75L348.26 520.11L348.65 520.47L349.05 520.83L349.44 521.19L349.84 521.54L350.23 521.9L350.63 522.25L351.02 522.61L351.42 522.96L351.81 523.31L352.2 523.66L352.6 524.01L352.99 524.35L353.39 524.7L353.78 525.05L354.17 525.39L354.57 525.73L354.96 526.07L355.36 526.41L355.75 526.75L359.17 529.65L362.58 532.46L365.98 535.17L369.35 537.8L372.71 540.33L376.05 542.77L379.36 545.12L382.64 547.37L385.9 549.54L389.13 551.61L392.33 553.58L395.5 555.47L398.63 557.26L401.73 558.95L404.79 560.56L407.81 562.07L410.78 563.48L413.72 564.8L416.61 566.03L419.45 567.16L422.25 568.19L424.99 569.13L427.69 569.98L430.32 570.72L432.91 571.38L435.43 571.93L437.9 572.39L440.3 572.76L442.65 573.02L444.92 573.19L447.14 573.26L449.28 573.24L451.35 573.11L453.35 572.89L455.28 572.57L457.13 572.16L458.91 571.64L460.6 571.03L462.22 570.31L463.75 569.5L464.64 568.77L465.52 568.02L466.37 567.26L467.21 566.48L468.04 565.68L468.84 564.87L469.63 564.04L470.4 563.2L471.15 562.34L471.88 561.47L472.59 560.59L473.28 559.69L473.96 558.77L474.62 557.85L475.25 556.91L475.87 555.96L476.47 555L477.05 554.03L477.6 553.04L478.14 552.05L478.66 551.04L479.15 550.02L479.63 549L480.09 547.96L480.52 546.92L480.93 545.86L481.32 544.8L481.69 543.73L482.04 542.65L482.37 541.57L482.67 540.48L482.95 539.38L483.21 538.27L483.44 537.16L483.66 536.04L483.85 534.92L484.02 533.79L484.16 532.65L484.28 531.52L484.37 530.38L484.67 528.29L484.94 526.21L485.19 524.13L485.42 522.04L485.64 519.95L485.84 517.87L486.01 515.78L486.17 513.69L486.31 511.6L486.44 509.52L486.54 507.43L486.62 505.34L486.69 503.25L486.73 501.16L486.76 499.08L486.77 496.99L486.76 494.91L486.73 492.82L486.68 490.74L486.61 488.66L486.52 486.58L486.42 484.5L486.29 482.42L486.15 480.34L485.99 478.27L485.8 476.2L485.6 474.13L485.38 472.06L485.14 470L484.88 467.94L484.61 465.88L484.31 463.82L484 461.77L483.66 459.72L483.31 457.67L482.93 455.63L482.54 453.59L482.13 451.56L481.7 449.53L481.25 447.5L481.17 447.12L481.1 446.75L481.02 446.37L480.95 446L480.87 445.62L480.79 445.24L480.71 444.86L480.63 444.49L480.56 444.11L480.48 443.73L480.4 443.35L480.32 442.97L480.24 442.59L480.15 442.21L480.07 441.83L479.99 441.45L479.91 441.07L479.82 440.69L479.74 440.3L479.66 439.92L479.57 439.54L479.49 439.16L479.4 438.77L479.31 438.39L479.23 438.01L479.14 437.63L479.05 437.24L478.97 436.86L478.88 436.48L478.79 436.09L478.7 435.71L478.61 435.32L478.52 434.94L478.43 434.56L478.34 434.17L478.25 433.79L478.15 433.4L478.06 433.02L477.97 432.63L477.87 432.25L475.76 432.72L473.65 433.19ZM163.24 434.16L163.11 434.67L162.98 435.19L162.86 435.71L162.73 436.23L162.6 436.75L162.48 437.26L162.36 437.78L162.23 438.3L162.11 438.82L161.99 439.34L161.87 439.86L161.75 440.38L161.63 440.91L161.51 441.43L161.39 441.95L161.28 442.47L161.16 442.99L161.05 443.52L160.93 444.04L160.82 444.56L160.71 445.08L160.59 445.61L160.48 446.13L160.37 446.66L160.26 447.18L160.15 447.7L160.04 448.23L159.93 448.75L159.82 449.28L159.72 449.8L159.61 450.33L159.5 450.85L159.4 451.38L159.29 451.9L159.19 452.43L159.08 452.95L158.98 453.48L158.87 454L158.07 458.42L157.33 462.79L156.67 467.09L156.08 471.34L155.55 475.52L155.1 479.63L154.72 483.68L154.4 487.66L154.15 491.56L153.97 495.4L153.85 499.16L153.8 502.85L153.81 506.46L153.89 509.99L154.03 513.45L154.23 516.82L154.49 520.11L154.82 523.31L155.2 526.42L155.64 529.45L156.14 532.39L156.7 535.24L157.31 537.99L157.98 540.65L158.71 543.22L159.49 545.68L160.33 548.05L161.21 550.31L162.15 552.47L163.15 554.53L164.19 556.48L165.28 558.32L166.43 560.06L167.62 561.68L168.86 563.19L170.14 564.59L171.48 565.87L172.86 567.03L174.28 568.08L175.75 569L176.82 569.41L177.9 569.8L178.98 570.16L180.07 570.5L181.17 570.82L182.27 571.11L183.37 571.38L184.48 571.63L185.59 571.85L186.71 572.05L187.82 572.23L188.94 572.38L190.07 572.51L191.19 572.62L192.32 572.7L193.44 572.77L194.57 572.8L195.7 572.82L196.83 572.81L197.95 572.78L199.08 572.73L200.21 572.65L201.33 572.55L202.45 572.43L203.57 572.28L204.69 572.12L205.81 571.92L206.92 571.71L208.03 571.47L209.13 571.21L210.23 570.93L211.33 570.63L212.42 570.3L213.5 569.95L214.58 569.58L215.65 569.18L216.72 568.76L217.78 568.32L218.83 567.86L219.87 567.38L221.82 566.6L223.76 565.8L225.69 564.99L227.61 564.16L229.52 563.31L231.43 562.44L233.32 561.56L235.21 560.66L237.09 559.74L238.96 558.81L240.82 557.86L242.67 556.89L244.51 555.91L246.35 554.9L248.17 553.89L249.98 552.85L251.79 551.8L253.58 550.73L255.37 549.65L257.14 548.55L258.91 547.43L260.66 546.3L262.4 545.15L264.14 543.98L265.86 542.8L267.57 541.61L269.27 540.4L270.97 539.17L272.65 537.92L274.31 536.67L275.97 535.39L277.62 534.1L279.25 532.8L280.88 531.48L282.49 530.14L284.09 528.8L285.68 527.43L287.26 526.05L288.82 524.66L290.38 523.25L290.67 522.99L290.98 522.72L291.28 522.46L291.58 522.19L291.88 521.93L292.17 521.66L292.48 521.39L292.78 521.12L293.08 520.85L293.38 520.58L293.67 520.31L293.97 520.04L294.28 519.76L294.58 519.49L294.88 519.21L295.18 518.94L295.47 518.66L295.78 518.38L296.08 518.11L296.38 517.83L296.67 517.55L296.98 517.27L297.27 516.99L297.58 516.71L297.88 516.43L298.17 516.14L298.48 515.86L298.77 515.58L299.08 515.29L299.38 515.01L299.68 514.72L299.98 514.43L300.27 514.15L300.58 513.86L300.88 513.57L301.18 513.28L301.47 512.99L301.77 512.71L302.08 512.42L302.38 512.13L300.92 510.55L299.48 508.96L298.04 507.38L296.6 505.78L295.17 504.19L293.74 502.58L292.32 500.98L290.9 499.36L289.49 497.75L288.08 496.12L286.68 494.5L285.29 492.86L283.89 491.23L282.51 489.59L281.13 487.94L279.75 486.29L278.38 484.63L277.01 482.97L275.65 481.31L274.3 479.64L272.95 477.97L271.6 476.29L270.26 474.61L268.93 472.92L267.6 471.23L266.28 469.54L264.96 467.84L263.65 466.13L262.35 464.42L261.05 462.71L259.76 461L258.47 459.28L257.18 457.55L255.91 455.82L254.64 454.09L253.37 452.36L252.11 450.62L250.86 448.87L249.62 447.13L248.37 445.38L246.23 445.21L244.08 445.04L241.94 444.86L239.8 444.68L237.66 444.48L235.52 444.28L233.38 444.08L231.24 443.86L229.11 443.64L226.97 443.41L224.84 443.17L222.71 442.93L220.58 442.67L218.45 442.41L216.32 442.15L214.2 441.87L212.07 441.59L209.95 441.3L207.82 441.01L205.7 440.7L203.58 440.39L201.46 440.07L199.35 439.75L197.23 439.42L195.11 439.08L193 438.73L190.88 438.38L188.77 438.02L186.66 437.65L184.55 437.27L182.44 436.89L180.33 436.5L178.22 436.1L176.12 435.7L174.01 435.29L171.91 434.87L169.8 434.44L167.7 434.01L165.6 433.57L163.5 433.13L163.37 433.64L163.24 434.16ZM356.03 447.47L355.04 447.52L354.05 447.56L353.06 447.6L352.07 447.64L351.08 447.68L350.09 447.72L349.1 447.76L348.1 447.79L347.11 447.83L346.12 447.86L345.12 447.89L344.13 447.92L343.13 447.95L342.13 447.97L341.14 448L340.14 448.02L339.14 448.05L338.14 448.07L337.14 448.09L336.14 448.11L335.14 448.13L334.13 448.14L333.13 448.16L332.13 448.17L331.12 448.18L330.11 448.2L329.11 448.21L328.1 448.22L327.09 448.22L326.08 448.23L325.07 448.24L324.06 448.24L323.04 448.25L322.03 448.25L321.02 448.25L320 448.25L319.01 448.25L318.03 448.25L317.04 448.25L316.06 448.24L315.07 448.24L314.09 448.23L313.11 448.22L312.12 448.22L311.14 448.21L310.16 448.2L309.18 448.19L308.2 448.18L307.22 448.16L306.25 448.15L305.27 448.13L304.3 448.12L303.32 448.1L302.35 448.08L301.37 448.06L300.4 448.04L299.43 448.02L298.46 448L297.5 447.98L296.53 447.95L295.56 447.93L294.6 447.9L293.63 447.87L292.67 447.84L291.71 447.81L290.75 447.78L289.79 447.75L288.84 447.72L287.88 447.68L286.93 447.65L285.97 447.61L285.02 447.58L284.07 447.54L283.12 447.5L284.1 448.79L285.08 450.08L286.06 451.36L287.04 452.63L288.03 453.9L289.01 455.17L290 456.43L290.99 457.69L291.98 458.94L292.97 460.19L293.96 461.43L294.95 462.66L295.94 463.9L296.94 465.12L297.93 466.34L298.93 467.56L299.93 468.77L300.92 469.97L301.92 471.17L302.92 472.37L303.92 473.55L304.92 474.74L305.92 475.91L306.93 477.09L307.93 478.25L308.93 479.41L309.94 480.57L310.94 481.71L311.95 482.86L312.95 483.99L313.96 485.13L314.96 486.25L315.97 487.37L316.97 488.48L317.98 489.59L318.99 490.69L319.99 491.79L321 492.88L322.03 491.73L323.07 490.58L324.09 489.43L325.12 488.28L326.14 487.12L327.16 485.96L328.18 484.8L329.19 483.63L330.2 482.47L331.2 481.3L332.21 480.12L333.21 478.95L334.2 477.77L335.19 476.59L336.18 475.4L337.17 474.22L338.15 473.03L339.13 471.84L340.11 470.64L341.08 469.44L342.05 468.24L343.02 467.04L343.98 465.83L344.94 464.62L345.9 463.41L346.85 462.19L347.8 460.98L348.74 459.75L349.68 458.53L350.62 457.3L351.56 456.07L352.49 454.84L353.42 453.6L354.34 452.36L355.26 451.12L356.18 449.88L357.09 448.63L358 447.38L357.01 447.42L356.03 447.47ZM317.08 218.63L315.62 218.64L314.16 218.65L312.71 218.66L311.25 218.68L309.8 218.69L308.35 218.71L306.89 218.74L305.45 218.76L304 218.79L302.55 218.82L301.11 218.86L299.66 218.9L298.22 218.93L296.78 218.98L295.34 219.02L293.9 219.07L292.47 219.12L291.03 219.17L289.6 219.23L288.17 219.28L286.73 219.35L285.31 219.41L283.88 219.47L282.45 219.54L281.03 219.61L279.6 219.68L278.18 219.76L276.76 219.84L275.34 219.92L273.92 220L272.5 220.09L271.09 220.17L269.67 220.26L268.26 220.36L266.85 220.45L265.44 220.55L264.03 220.65L262.63 220.75L261.82 221.94L261.02 223.13L260.21 224.33L259.42 225.52L258.62 226.72L257.82 227.91L257.03 229.11L256.24 230.31L255.45 231.51L254.66 232.71L253.87 233.91L253.09 235.11L252.31 236.32L251.53 237.52L250.76 238.73L249.98 239.94L249.21 241.15L248.44 242.36L247.67 243.57L246.91 244.78L246.14 246L245.38 247.21L244.62 248.43L243.87 249.65L243.12 250.87L242.36 252.09L241.62 253.32L240.87 254.54L240.13 255.77L239.39 257L238.65 258.23L237.91 259.46L237.18 260.69L236.45 261.93L235.72 263.16L235 264.4L234.28 265.64L233.56 266.88L232.84 268.13L232.13 269.38L231.41 270.62L230.7 271.87L230 273.12L229.29 274.37L228.59 275.62L227.88 276.87L227.18 278.13L226.49 279.38L225.79 280.64L225.1 281.89L224.41 283.15L223.72 284.41L223.03 285.67L222.34 286.93L221.66 288.19L220.98 289.45L220.3 290.72L219.63 291.98L218.95 293.25L218.28 294.52L217.61 295.78L216.95 297.05L216.28 298.32L215.62 299.6L214.96 300.87L214.3 302.14L213.65 303.42L213 304.7L212.35 305.98L211.7 307.26L211.05 308.54L210.41 309.82L209.77 311.1L209.14 312.39L208.5 313.67L207.87 314.96L207.24 316.25L206.62 317.54L206 318.83L205.37 320.13L206 321.42L206.64 322.71L207.27 324L207.9 325.29L208.54 326.58L209.18 327.86L209.82 329.15L210.46 330.43L211.11 331.71L211.75 332.99L212.4 334.27L213.05 335.55L213.71 336.83L214.36 338.11L215.02 339.38L215.68 340.65L216.34 341.93L217.01 343.2L217.67 344.47L218.34 345.73L219.02 347L219.69 348.27L220.37 349.53L221.04 350.8L221.73 352.06L222.41 353.32L223.09 354.58L223.78 355.84L224.47 357.1L225.17 358.36L225.86 359.61L226.56 360.87L227.26 362.12L227.97 363.38L228.68 364.63L229.38 365.88L230.1 367.13L230.81 368.38L231.53 369.63L232.25 370.88L232.97 372.12L233.7 373.37L234.43 374.61L235.16 375.85L235.89 377.09L236.62 378.33L237.36 379.57L238.1 380.81L238.84 382.04L239.59 383.27L240.33 384.51L241.08 385.74L241.83 386.97L242.59 388.19L243.34 389.42L244.1 390.65L244.86 391.87L245.62 393.09L246.39 394.31L247.16 395.53L247.93 396.75L248.7 397.97L249.47 399.18L250.25 400.4L251.03 401.61L251.81 402.82L252.59 404.03L253.38 405.24L254.17 406.44L254.96 407.65L255.75 408.85L256.55 410.06L257.35 411.26L258.15 412.46L258.95 413.65L259.76 414.85L260.56 416.05L261.37 417.24L262.19 418.43L263 419.63L264.38 419.71L265.76 419.79L267.14 419.87L268.53 419.95L269.92 420.02L271.31 420.1L272.7 420.17L274.1 420.24L275.5 420.31L276.9 420.37L278.3 420.44L279.71 420.5L281.11 420.56L282.52 420.62L283.94 420.67L285.35 420.73L286.77 420.78L288.19 420.83L289.61 420.88L291.03 420.92L292.46 420.97L293.89 421.01L295.32 421.05L296.75 421.08L298.19 421.12L299.62 421.15L301.06 421.18L302.51 421.21L303.95 421.24L305.4 421.26L306.85 421.28L308.3 421.3L309.75 421.32L311.21 421.33L312.67 421.35L314.13 421.36L315.59 421.36L317.06 421.37L318.53 421.37L320 421.38L321.47 421.37L322.94 421.37L324.41 421.36L325.88 421.36L327.35 421.35L328.81 421.33L330.28 421.32L331.74 421.3L333.2 421.28L334.66 421.26L336.12 421.23L337.58 421.2L339.04 421.17L340.49 421.14L341.95 421.1L343.4 421.07L344.85 421.03L346.3 420.98L347.74 420.94L349.19 420.89L350.63 420.84L352.07 420.79L353.51 420.73L354.95 420.67L356.38 420.61L357.81 420.55L359.25 420.48L360.67 420.41L362.1 420.34L363.52 420.27L364.94 420.19L366.36 420.11L367.78 420.03L369.19 419.94L370.61 419.86L372.02 419.77L373.42 419.67L374.83 419.58L376.23 419.48L377.62 419.38L378.42 418.17L379.21 416.97L380.01 415.77L380.8 414.57L381.59 413.37L382.37 412.17L383.16 410.96L383.94 409.76L384.72 408.55L385.5 407.35L386.27 406.14L387.05 404.93L387.82 403.72L388.59 402.51L389.36 401.3L390.13 400.09L390.89 398.88L391.65 397.66L392.41 396.45L393.17 395.23L393.93 394.02L394.68 392.8L395.43 391.58L396.18 390.36L396.93 389.14L397.68 387.91L398.42 386.69L399.16 385.46L399.9 384.23L400.63 383.01L401.37 381.78L402.1 380.54L402.83 379.31L403.56 378.07L404.28 376.84L405.01 375.6L405.73 374.36L406.45 373.12L407.16 371.87L407.87 370.63L408.6 369.37L409.31 368.11L410.03 366.85L410.74 365.59L411.46 364.33L412.16 363.07L412.87 361.81L413.58 360.55L414.28 359.28L414.98 358.02L415.67 356.75L416.37 355.48L417.06 354.21L417.75 352.95L418.44 351.68L419.13 350.41L419.81 349.13L420.49 347.86L421.17 346.59L421.84 345.31L422.52 344.04L423.19 342.76L423.86 341.48L424.53 340.21L425.19 338.93L425.85 337.65L426.51 336.36L427.17 335.08L427.82 333.8L428.48 332.52L429.13 331.23L429.78 329.95L430.42 328.66L431.06 327.37L431.71 326.08L432.34 324.79L432.98 323.5L433.61 322.21L434.25 320.92L434.88 319.63L434.24 318.34L433.6 317.06L432.95 315.78L432.31 314.5L431.66 313.22L431.02 311.94L430.37 310.66L429.71 309.38L429.06 308.11L428.4 306.83L427.75 305.56L427.09 304.28L426.42 303.01L425.76 301.74L425.09 300.47L424.43 299.2L423.76 297.94L423.08 296.67L422.41 295.4L421.73 294.14L421.06 292.88L420.38 291.62L419.69 290.36L419.01 289.1L418.32 287.84L417.63 286.58L416.94 285.33L416.25 284.07L415.55 282.82L414.85 281.57L414.15 280.32L413.45 279.07L412.75 277.82L412.04 276.57L411.33 275.33L410.62 274.09L409.91 272.84L409.19 271.6L408.47 270.36L407.75 269.13L407.03 267.89L406.3 266.65L405.58 265.42L404.85 264.19L404.12 262.96L403.39 261.73L402.65 260.5L401.92 259.27L401.18 258.04L400.44 256.82L399.7 255.6L398.95 254.38L398.21 253.16L397.46 251.94L396.71 250.72L395.96 249.51L395.21 248.29L394.45 247.08L393.7 245.87L392.94 244.66L392.18 243.45L391.42 242.24L390.65 241.03L389.89 239.83L389.12 238.63L388.35 237.43L387.58 236.23L386.8 235.03L386.03 233.83L385.25 232.63L384.47 231.44L383.69 230.25L382.91 229.05L382.12 227.86L381.34 226.67L380.55 225.49L379.76 224.3L378.97 223.12L378.17 221.93L377.38 220.75L375.98 220.65L374.58 220.55L373.17 220.45L371.77 220.36L370.36 220.26L368.95 220.17L367.54 220.09L366.13 220L364.71 219.92L363.29 219.84L361.88 219.76L360.45 219.68L359.03 219.61L357.61 219.54L356.18 219.47L354.75 219.41L353.32 219.35L351.89 219.28L350.45 219.23L349.02 219.17L347.58 219.12L346.14 219.07L344.7 219.02L343.26 218.98L341.81 218.93L340.37 218.9L338.92 218.86L337.47 218.82L336.02 218.79L334.57 218.76L333.12 218.74L331.67 218.71L330.21 218.69L328.76 218.68L327.3 218.66L325.84 218.65L324.38 218.64L322.92 218.63L321.46 218.63L320 218.63L318.54 218.63L317.08 218.63ZM189.87 354.75L189.25 356.24L188.64 357.74L188.03 359.23L187.42 360.72L186.82 362.21L186.22 363.7L185.63 365.18L185.05 366.67L184.47 368.15L183.89 369.63L183.32 371.11L182.75 372.58L182.19 374.06L181.64 375.53L181.09 377L180.54 378.47L180 379.94L179.46 381.4L178.93 382.86L178.41 384.32L177.89 385.78L177.38 387.24L176.87 388.69L176.36 390.14L175.87 391.59L175.37 393.04L174.89 394.48L174.4 395.93L173.93 397.37L173.46 398.8L172.99 400.24L172.53 401.67L172.08 403.1L171.63 404.53L171.19 405.95L170.75 407.38L172.26 407.7L173.77 408.02L175.28 408.33L176.8 408.64L178.31 408.95L179.83 409.25L181.34 409.55L182.86 409.85L184.38 410.14L185.9 410.42L187.42 410.71L188.94 410.98L190.46 411.26L191.98 411.53L193.51 411.79L195.03 412.05L196.56 412.31L198.08 412.56L199.61 412.81L201.14 413.06L202.67 413.3L204.19 413.53L205.72 413.77L207.25 413.99L208.79 414.22L210.32 414.44L211.85 414.65L213.38 414.86L214.92 415.07L216.45 415.27L217.99 415.47L219.52 415.67L221.06 415.86L222.6 416.05L224.13 416.23L225.67 416.41L227.21 416.58L228.75 416.75L228.21 415.91L227.67 415.07L227.13 414.23L226.59 413.39L226.06 412.54L225.52 411.7L224.99 410.85L224.46 410.01L223.92 409.16L223.4 408.31L222.87 407.47L222.34 406.62L221.82 405.77L221.29 404.92L220.77 404.07L220.25 403.21L219.73 402.36L219.21 401.51L218.69 400.66L218.17 399.8L217.65 398.95L217.14 398.09L216.62 397.24L216.11 396.38L215.6 395.53L215.08 394.67L214.57 393.81L214.06 392.96L213.55 392.1L213.05 391.24L212.54 390.38L212.03 389.53L211.52 388.67L211.02 387.81L210.51 386.95L210.01 386.09L209.5 385.23L209 384.38L208.51 383.53L208.02 382.68L207.53 381.83L207.04 380.98L206.55 380.13L206.07 379.27L205.58 378.42L205.1 377.57L204.62 376.72L204.14 375.86L203.66 375.01L203.18 374.15L202.71 373.3L202.23 372.44L201.76 371.59L201.29 370.73L200.81 369.87L200.34 369.01L199.88 368.16L199.41 367.3L198.94 366.44L198.47 365.58L198.01 364.72L197.54 363.86L197.08 363L196.62 362.13L196.16 361.27L195.69 360.41L195.23 359.54L194.78 358.68L194.32 357.82L193.86 356.95L193.4 356.09L192.95 355.22L192.49 354.35L192.03 353.49L191.58 352.62L191.13 351.75L190.5 353.25L189.87 354.75ZM448.45 352.53L447.98 353.41L447.52 354.3L447.05 355.18L446.58 356.07L446.11 356.95L445.65 357.84L445.18 358.72L444.71 359.61L444.24 360.49L443.76 361.37L443.29 362.25L442.82 363.13L442.34 364.01L441.87 364.89L441.39 365.77L440.92 366.65L440.44 367.53L439.96 368.41L439.48 369.29L439 370.16L438.51 371.04L438.03 371.92L437.55 372.79L437.06 373.67L436.57 374.54L436.08 375.41L435.59 376.29L435.1 377.16L434.61 378.03L434.12 378.91L433.62 379.78L433.13 380.65L432.63 381.52L432.13 382.39L431.63 383.26L431.13 384.13L430.63 384.97L430.14 385.82L429.64 386.67L429.15 387.52L428.65 388.37L428.15 389.22L427.66 390.06L427.16 390.91L426.66 391.76L426.16 392.61L425.66 393.45L425.16 394.3L424.66 395.15L424.15 395.99L423.65 396.84L423.15 397.69L422.64 398.53L422.13 399.37L421.63 400.22L421.12 401.06L420.61 401.91L420.1 402.75L419.58 403.59L419.07 404.43L418.56 405.27L418.04 406.11L417.52 406.95L417.01 407.79L416.49 408.63L415.97 409.46L415.44 410.3L414.92 411.13L414.4 411.97L413.87 412.8L413.34 413.63L412.81 414.47L412.28 415.3L411.75 416.13L413.31 415.95L414.87 415.76L416.43 415.57L417.98 415.38L419.54 415.18L421.1 414.98L422.65 414.77L424.21 414.56L425.76 414.34L427.31 414.12L428.87 413.89L430.42 413.66L431.97 413.43L433.52 413.19L435.07 412.94L436.62 412.69L438.17 412.44L439.72 412.18L441.27 411.92L442.81 411.66L444.36 411.39L445.9 411.11L447.45 410.83L448.99 410.55L450.53 410.26L452.07 409.97L453.61 409.67L455.15 409.37L456.69 409.06L458.23 408.75L459.77 408.44L461.3 408.12L462.84 407.8L464.37 407.47L465.91 407.14L467.44 406.81L468.97 406.47L470.5 406.13L470.01 404.64L469.53 403.15L469.03 401.66L468.54 400.18L468.04 398.7L467.53 397.22L467.03 395.74L466.51 394.27L466 392.79L465.48 391.32L464.96 389.85L464.43 388.39L463.9 386.92L463.37 385.45L462.83 383.99L462.29 382.53L461.74 381.07L461.19 379.61L460.64 378.16L460.08 376.7L459.52 375.25L458.96 373.8L458.39 372.35L457.82 370.9L457.24 369.45L456.66 368L456.07 366.56L455.49 365.12L454.89 363.67L454.3 362.23L453.7 360.79L453.09 359.36L452.48 357.92L451.87 356.48L451.25 355.05L450.63 353.61L450 352.18L449.38 350.75L448.91 351.64L448.45 352.53ZM143.91 240.94L143.37 241.11L142.83 241.27L142.28 241.43L141.74 241.59L141.19 241.75L140.65 241.92L140.11 242.08L139.56 242.24L139.02 242.41L138.48 242.57L137.94 242.74L137.39 242.91L136.85 243.07L136.31 243.24L135.77 243.41L135.22 243.58L134.68 243.75L134.14 243.92L133.6 244.09L133.06 244.27L132.52 244.44L131.98 244.61L131.44 244.79L130.9 244.96L130.36 245.14L129.82 245.31L129.28 245.49L128.74 245.67L128.2 245.85L127.66 246.03L127.13 246.21L126.59 246.39L126.05 246.57L125.52 246.76L124.98 246.94L124.44 247.13L123.91 247.31L123.37 247.5L119.13 249.01L114.96 250.55L110.85 252.12L106.82 253.73L102.86 255.36L98.98 257.02L95.18 258.71L91.45 260.42L87.81 262.16L84.25 263.92L80.78 265.7L77.39 267.49L74.1 269.31L70.9 271.14L67.79 272.98L64.78 274.84L61.87 276.71L59.06 278.59L56.35 280.48L53.75 282.38L51.25 284.28L48.87 286.18L46.59 288.09L44.43 290L42.38 291.91L40.45 293.81L38.64 295.72L36.95 297.62L35.38 299.51L33.94 301.39L32.62 303.27L31.44 305.14L30.39 306.99L29.47 308.83L28.68 310.65L28.04 312.46L27.53 314.25L27.17 316.02L26.95 317.77L26.87 319.5L27.06 320.63L27.28 321.76L27.51 322.87L27.77 323.99L28.05 325.09L28.35 326.19L28.67 327.27L29.02 328.36L29.39 329.43L29.77 330.49L30.18 331.54L30.61 332.59L31.06 333.62L31.53 334.65L32.03 335.67L32.54 336.67L33.07 337.66L33.62 338.65L34.19 339.62L34.78 340.58L35.39 341.53L36.02 342.46L36.67 343.38L37.33 344.3L38.02 345.19L38.72 346.08L39.44 346.95L40.18 347.8L40.94 348.64L41.71 349.47L42.5 350.28L43.31 351.08L44.14 351.86L44.98 352.63L45.84 353.38L46.71 354.11L47.6 354.83L48.51 355.53L49.44 356.21L50.37 356.88L52.03 358.17L53.72 359.45L55.43 360.71L57.18 361.96L58.95 363.2L60.74 364.41L62.56 365.61L64.41 366.8L66.28 367.97L68.16 369.12L70.07 370.26L72 371.38L73.95 372.48L75.91 373.57L77.88 374.64L79.88 375.7L81.88 376.74L83.9 377.76L85.93 378.76L87.97 379.75L90.02 380.72L92.07 381.68L94.14 382.61L96.2 383.53L98.28 384.44L100.35 385.32L102.43 386.19L104.51 387.04L106.59 387.88L108.66 388.69L110.74 389.49L112.81 390.27L114.88 391.03L116.94 391.78L118.99 392.51L121.04 393.22L123.08 393.91L125.11 394.58L127.12 395.24L129.12 395.88L129.51 396.01L129.89 396.14L130.28 396.27L130.66 396.4L131.05 396.53L131.43 396.65L131.82 396.78L132.2 396.91L132.59 397.04L132.97 397.16L133.36 397.29L133.74 397.42L134.13 397.54L134.51 397.67L134.9 397.79L135.28 397.92L135.67 398.04L136.06 398.16L136.44 398.28L136.83 398.41L137.21 398.53L137.6 398.65L137.99 398.77L138.38 398.89L138.76 399.01L139.15 399.13L139.54 399.25L139.93 399.37L140.32 399.48L140.71 399.6L141.1 399.72L141.49 399.84L141.88 399.95L142.27 400.07L142.66 400.18L143.05 400.3L143.45 400.41L143.84 400.52L144.23 400.64L144.63 400.75L145.28 398.69L145.93 396.63L146.6 394.57L147.26 392.52L147.94 390.46L148.62 388.41L149.31 386.36L150.01 384.31L150.71 382.27L151.42 380.22L152.14 378.18L152.86 376.15L153.58 374.11L154.32 372.07L155.06 370.04L155.81 368.01L156.56 365.99L157.32 363.96L158.09 361.94L158.86 359.92L159.64 357.91L160.42 355.89L161.22 353.88L162.01 351.87L162.82 349.86L163.63 347.86L164.44 345.86L165.27 343.86L166.1 341.87L166.93 339.88L167.77 337.89L168.62 335.9L169.47 333.92L170.34 331.94L171.2 329.96L172.07 327.99L172.95 326.02L173.84 324.05L174.73 322.09L175.63 320.13L174.74 318.19L173.86 316.26L172.98 314.32L172.11 312.37L171.25 310.43L170.39 308.48L169.54 306.53L168.7 304.57L167.86 302.62L167.03 300.65L166.2 298.69L165.38 296.72L164.57 294.75L163.76 292.78L162.96 290.81L162.16 288.83L161.37 286.85L160.59 284.87L159.82 282.88L159.05 280.89L158.28 278.9L157.53 276.91L156.78 274.91L156.03 272.91L155.29 270.91L154.56 268.91L153.84 266.9L153.12 264.89L152.41 262.88L151.7 260.87L151 258.85L150.31 256.84L149.62 254.82L148.94 252.8L148.27 250.77L147.6 248.75L146.94 246.72L146.29 244.69L145.64 242.66L145 240.63L144.46 240.78L143.91 240.94ZM493.96 244.9L493.31 246.91L492.65 248.92L491.99 250.92L491.31 252.93L490.64 254.93L489.95 256.92L489.26 258.92L488.57 260.91L487.86 262.9L487.15 264.89L486.44 266.88L485.72 268.86L484.99 270.84L484.25 272.82L483.51 274.79L482.77 276.77L482.01 278.74L481.25 280.7L480.48 282.67L479.71 284.63L478.93 286.59L478.14 288.55L477.35 290.5L476.55 292.45L475.74 294.4L474.93 296.35L474.1 298.29L473.28 300.24L472.44 302.18L471.6 304.11L470.75 306.04L469.9 307.97L469.04 309.9L468.17 311.83L467.29 313.75L466.41 315.67L465.52 317.59L464.62 319.5L465.55 321.44L466.47 323.39L467.38 325.33L468.29 327.28L469.19 329.24L470.08 331.19L470.97 333.15L471.85 335.11L472.73 337.08L473.6 339.04L474.46 341.01L475.31 342.99L476.16 344.96L477.01 346.94L477.84 348.92L478.67 350.9L479.49 352.89L480.31 354.88L481.12 356.87L481.92 358.86L482.72 360.86L483.51 362.85L484.29 364.85L485.06 366.86L485.83 368.86L486.59 370.87L487.35 372.88L488.1 374.9L488.84 376.91L489.57 378.93L490.29 380.95L491.01 382.98L491.72 385L492.43 387.03L493.13 389.06L493.82 391.09L494.5 393.13L495.17 395.17L495.84 397.21L496.5 399.25L496.77 399.17L497.04 399.1L497.31 399.02L497.58 398.95L497.85 398.87L498.12 398.79L498.39 398.71L498.66 398.64L498.93 398.56L499.2 398.48L499.46 398.4L499.73 398.32L500 398.24L500.27 398.16L500.53 398.08L500.8 398L501.06 397.92L501.33 397.84L501.59 397.75L501.86 397.67L502.12 397.59L502.39 397.51L502.65 397.42L502.92 397.34L503.18 397.26L503.44 397.18L503.71 397.09L503.97 397.01L504.23 396.93L504.5 396.84L504.76 396.76L505.02 396.67L505.29 396.59L505.55 396.51L505.81 396.42L506.07 396.34L506.34 396.25L506.6 396.17L506.86 396.08L507.12 396L511.77 394.43L516.34 392.83L520.83 391.18L525.25 389.5L529.59 387.79L533.84 386.04L538.02 384.26L542.1 382.45L546.1 380.61L550 378.75L553.81 376.87L557.53 374.96L561.15 373.03L564.66 371.08L568.07 369.11L571.38 367.13L574.58 365.13L577.67 363.13L580.65 361.11L583.52 359.08L586.26 357.04L588.89 355L591.4 352.96L593.78 350.91L596.03 348.86L598.16 346.82L600.16 344.77L602.02 342.73L603.74 340.7L605.33 338.68L606.78 336.66L608.09 334.66L609.25 332.67L610.26 330.69L611.13 328.74L611.84 326.8L612.4 324.88L612.8 322.98L613.04 321.1L613.12 319.25L613.05 317.53L612.82 315.79L612.45 314.02L611.92 312.23L611.25 310.42L610.45 308.6L609.5 306.75L608.41 304.89L607.18 303.02L605.83 301.14L604.34 299.24L602.72 297.34L600.98 295.43L599.11 293.51L597.12 291.59L595.01 289.66L592.78 287.74L590.43 285.81L587.98 283.89L585.41 281.97L582.73 280.05L579.94 278.15L577.05 276.25L574.06 274.36L570.96 272.48L567.77 270.61L564.48 268.76L561.1 266.93L557.63 265.11L554.06 263.32L550.41 261.54L546.68 259.79L542.86 258.06L538.96 256.35L534.98 254.67L530.93 253.03L526.8 251.41L522.6 249.82L518.34 248.27L514 246.75L513.55 246.6L513.1 246.45L512.65 246.3L512.19 246.15L511.74 246L511.28 245.85L510.83 245.7L510.37 245.55L509.91 245.4L509.45 245.25L508.99 245.1L508.53 244.95L508.07 244.8L507.61 244.66L507.14 244.51L506.68 244.36L506.21 244.21L505.75 244.06L505.28 243.91L504.81 243.77L504.34 243.62L503.87 243.47L503.4 243.32L502.93 243.18L502.46 243.03L501.98 242.88L501.51 242.74L501.03 242.59L500.56 242.45L500.08 242.3L499.6 242.16L499.12 242.01L498.64 241.87L498.16 241.73L497.68 241.58L497.19 241.44L496.71 241.3L496.22 241.16L495.74 241.02L495.25 240.88L494.61 242.89L493.96 244.9ZM412.92 225.89L413.44 226.71L413.96 227.53L414.48 228.35L414.99 229.17L415.51 230L416.03 230.82L416.54 231.64L417.05 232.47L417.57 233.29L418.08 234.12L418.59 234.94L419.1 235.77L419.6 236.59L420.11 237.42L420.62 238.25L421.12 239.08L421.63 239.91L422.13 240.74L422.63 241.57L423.13 242.4L423.63 243.23L424.13 244.06L424.63 244.89L425.12 245.72L425.62 246.55L426.11 247.39L426.61 248.22L427.1 249.06L427.59 249.89L428.08 250.73L428.57 251.56L429.06 252.4L429.54 253.24L430.03 254.07L430.52 254.91L431 255.75L431.49 256.6L431.98 257.45L432.48 258.3L432.97 259.15L433.45 260.01L433.94 260.86L434.43 261.71L434.92 262.57L435.4 263.43L435.88 264.28L436.37 265.14L436.85 266L437.33 266.86L437.81 267.72L438.29 268.58L438.77 269.44L439.25 270.31L439.73 271.17L440.2 272.03L440.68 272.89L441.15 273.76L441.63 274.62L442.1 275.49L442.57 276.35L443.05 277.22L443.52 278.09L443.99 278.95L444.46 279.82L444.93 280.69L445.4 281.55L445.86 282.42L446.33 283.29L446.8 284.16L447.27 285.03L447.73 285.89L448.2 286.76L448.66 287.63L449.12 288.5L449.73 287.1L450.32 285.7L450.91 284.29L451.5 282.89L452.09 281.48L452.67 280.07L453.25 278.66L453.82 277.25L454.39 275.84L454.96 274.43L455.52 273.02L456.08 271.6L456.64 270.19L457.19 268.77L457.74 267.35L458.28 265.93L458.82 264.51L459.36 263.08L459.89 261.66L460.42 260.23L460.94 258.8L461.46 257.37L461.98 255.94L462.49 254.51L463 253.07L463.51 251.63L464.01 250.2L464.51 248.76L465 247.31L465.49 245.87L465.97 244.42L466.45 242.98L466.93 241.53L467.4 240.08L467.87 238.62L468.33 237.17L468.79 235.71L469.25 234.25L467.83 233.93L466.4 233.6L464.96 233.29L463.52 232.97L462.08 232.66L460.63 232.35L459.18 232.05L457.72 231.75L456.26 231.45L454.79 231.15L453.31 230.86L451.84 230.57L450.35 230.28L448.87 230L447.37 229.72L445.88 229.45L444.38 229.18L442.87 228.91L441.36 228.64L439.84 228.38L438.33 228.12L436.8 227.86L435.28 227.61L433.74 227.36L432.21 227.12L430.67 226.88L429.12 226.64L427.57 226.4L426.02 226.17L424.47 225.94L422.91 225.72L421.34 225.5L419.77 225.28L418.2 225.07L416.62 224.86L415.05 224.65L413.46 224.45L411.87 224.25L412.4 225.07L412.92 225.89ZM223.43 224.86L221.87 225.06L220.32 225.28L218.77 225.49L217.22 225.71L215.68 225.93L214.13 226.15L212.6 226.38L211.06 226.61L209.53 226.84L208.01 227.08L206.48 227.32L204.96 227.56L203.45 227.81L201.93 228.06L200.43 228.31L198.92 228.56L197.42 228.82L195.92 229.08L194.43 229.35L192.94 229.61L191.46 229.88L189.98 230.16L188.5 230.43L187.03 230.71L185.56 231L184.1 231.28L182.64 231.57L181.18 231.87L179.73 232.16L178.29 232.46L176.85 232.76L175.41 233.07L173.98 233.37L172.55 233.69L171.12 234L171.56 235.39L172 236.79L172.45 238.19L172.9 239.59L173.35 240.99L173.81 242.39L174.28 243.8L174.75 245.21L175.22 246.62L175.7 248.04L176.19 249.46L176.68 250.88L177.17 252.3L177.67 253.72L178.17 255.15L178.68 256.58L179.19 258.01L179.71 259.44L180.23 260.88L180.76 262.31L181.3 263.75L181.83 265.19L182.38 266.63L182.92 268.08L183.48 269.53L184.03 270.98L184.6 272.43L185.17 273.88L185.74 275.33L186.32 276.79L186.9 278.25L187.49 279.71L188.08 281.17L188.68 282.63L189.28 284.1L189.89 285.56L190.51 287.03L191.12 288.5L191.57 287.63L192.02 286.76L192.46 285.9L192.91 285.03L193.36 284.16L193.82 283.3L194.27 282.43L194.73 281.57L195.18 280.71L195.64 279.84L196.1 278.98L196.56 278.12L197.02 277.26L197.48 276.4L197.95 275.54L198.41 274.68L198.88 273.82L199.34 272.97L199.81 272.11L200.28 271.25L200.75 270.4L201.22 269.54L201.7 268.69L202.17 267.84L202.64 266.99L203.12 266.14L203.59 265.29L204.07 264.44L204.55 263.59L205.03 262.74L205.5 261.9L205.98 261.05L206.46 260.21L206.95 259.36L207.43 258.52L207.91 257.68L208.39 256.84L208.87 256L209.36 255.15L209.85 254.3L210.33 253.46L210.82 252.61L211.31 251.76L211.8 250.92L212.3 250.07L212.79 249.23L213.29 248.38L213.78 247.54L214.28 246.7L214.78 245.86L215.28 245.02L215.78 244.18L216.29 243.34L216.79 242.5L217.3 241.66L217.8 240.82L218.31 239.98L218.82 239.15L219.33 238.31L219.84 237.48L220.35 236.65L220.87 235.81L221.38 234.98L221.89 234.15L222.41 233.32L222.93 232.49L223.44 231.66L223.96 230.83L224.48 230.01L225 229.18L225.52 228.36L226.04 227.53L226.56 226.71L227.08 225.89L227.6 225.07L228.13 224.25L226.56 224.45L224.99 224.65L223.43 224.86ZM444.33 66.91L442.02 67.12L439.65 67.42L437.21 67.83L434.71 68.33L432.15 68.94L429.52 69.64L426.84 70.44L424.1 71.33L421.31 72.33L418.47 73.42L415.58 74.61L412.63 75.9L409.65 77.28L406.61 78.76L403.54 80.34L400.42 82.01L397.27 83.78L394.08 85.64L390.85 87.6L387.59 89.66L384.3 91.81L380.99 94.05L377.64 96.39L374.27 98.82L370.88 101.35L367.46 103.97L364.03 106.68L360.57 109.49L357.11 112.38L353.62 115.38L353.25 115.7L352.88 116.03L352.5 116.36L352.13 116.69L351.76 117.02L351.39 117.34L351.02 117.67L350.65 118L350.28 118.33L349.92 118.66L349.55 118.99L349.18 119.32L348.82 119.65L348.45 119.98L348.09 120.31L347.72 120.64L347.36 120.97L346.99 121.3L346.63 121.64L346.27 121.97L345.9 122.3L345.54 122.64L345.18 122.97L344.81 123.3L344.45 123.64L344.09 123.97L343.73 124.31L343.36 124.65L343 124.99L342.64 125.32L342.28 125.66L341.91 126L341.55 126.34L341.19 126.68L340.82 127.03L340.46 127.37L340.09 127.71L339.73 128.06L339.37 128.4L339 128.75L340.44 130.32L341.88 131.89L343.31 133.47L344.73 135.05L346.15 136.64L347.56 138.24L348.97 139.83L350.37 141.44L351.77 143.05L353.16 144.66L354.54 146.28L355.92 147.9L357.29 149.53L358.66 151.16L360.02 152.79L361.38 154.44L362.73 156.08L364.08 157.73L365.42 159.39L366.75 161.05L368.08 162.71L369.4 164.38L370.72 166.05L372.03 167.73L373.34 169.41L374.64 171.1L375.93 172.79L377.22 174.48L378.5 176.18L379.78 177.88L381.05 179.59L382.32 181.3L383.58 183.01L384.84 184.73L386.09 186.45L387.33 188.18L388.57 189.91L389.8 191.65L391.03 193.38L392.25 195.13L394.37 195.32L396.49 195.51L398.6 195.72L400.72 195.93L402.84 196.16L404.95 196.38L407.07 196.62L409.18 196.86L411.3 197.11L413.41 197.37L415.52 197.64L417.63 197.91L419.75 198.19L421.86 198.47L423.97 198.77L426.07 199.07L428.18 199.38L430.29 199.69L432.39 200.01L434.5 200.34L436.6 200.68L438.71 201.02L440.81 201.37L442.91 201.73L445.01 202.1L447.11 202.47L449.21 202.84L451.31 203.23L453.4 203.62L455.5 204.02L457.59 204.42L459.68 204.84L461.77 205.26L463.86 205.68L465.95 206.11L468.04 206.55L470.13 207L472.21 207.45L474.29 207.91L476.37 208.38L476.46 208.07L476.54 207.76L476.62 207.45L476.71 207.14L476.79 206.83L476.87 206.52L476.94 206.21L477.02 205.9L477.1 205.59L477.18 205.28L477.25 204.97L477.33 204.66L477.4 204.35L477.48 204.04L477.55 203.73L477.62 203.42L477.69 203.11L477.76 202.79L477.84 202.48L477.91 202.17L477.98 201.86L478.05 201.55L478.12 201.24L478.18 200.92L478.25 200.61L478.32 200.3L478.39 199.98L478.46 199.67L478.52 199.36L478.59 199.04L478.66 198.73L478.72 198.41L478.79 198.1L478.86 197.78L478.92 197.46L478.99 197.15L479.05 196.83L479.12 196.51L479.18 196.19L479.25 195.88L480.2 191.08L481.08 186.34L481.87 181.66L482.59 177.05L483.23 172.5L483.8 168.02L484.29 163.61L484.7 159.27L485.04 155L485.31 150.81L485.51 146.7L485.63 142.67L485.68 138.72L485.67 134.85L485.58 131.07L485.43 127.38L485.2 123.78L484.92 120.27L484.56 116.85L484.14 113.53L483.66 110.31L483.11 107.19L482.5 104.17L481.82 101.25L481.09 98.44L480.29 95.74L479.44 93.14L478.53 90.66L477.55 88.3L476.53 86.05L475.44 83.91L474.3 81.9L473.1 80.01L471.85 78.25L470.55 76.61L469.19 75.1L467.78 73.72L466.32 72.47L464.81 71.35L463.25 70.38L461.72 69.57L460.11 68.87L458.42 68.27L456.64 67.78L454.78 67.38L452.84 67.09L450.82 66.89L448.73 66.8L446.56 66.81L444.33 66.91ZM186.35 67.73L184.28 68.04L182.3 68.46L180.4 68.99L178.59 69.64L176.87 70.39L175.25 71.25L173.79 72.17L172.38 73.21L171.01 74.38L169.69 75.67L168.42 77.08L167.2 78.62L166.02 80.26L164.9 82.03L163.83 83.91L162.8 85.9L161.83 88L160.92 90.21L160.05 92.53L159.24 94.95L158.49 97.47L157.79 100.1L157.15 102.83L156.56 105.65L156.03 108.57L155.56 111.58L155.15 114.68L154.8 117.88L154.51 121.16L154.28 124.53L154.11 127.98L154.01 131.52L153.97 135.14L153.99 138.84L154.07 142.62L154.23 146.47L154.44 150.39L154.73 154.39L155.08 158.46L155.5 162.59L155.99 166.8L156.55 171.07L157.18 175.4L157.88 179.79L158.66 184.24L159.5 188.75L159.6 189.24L159.71 189.72L159.81 190.21L159.91 190.7L160.02 191.19L160.12 191.67L160.22 192.16L160.33 192.65L160.43 193.14L160.54 193.62L160.64 194.11L160.74 194.6L160.85 195.08L160.95 195.57L161.06 196.06L161.17 196.54L161.27 197.03L161.38 197.51L161.49 198L161.59 198.48L161.7 198.97L161.81 199.45L161.92 199.94L162.03 200.42L162.14 200.91L162.25 201.39L162.36 201.87L162.47 202.36L162.59 202.84L162.7 203.32L162.81 203.8L162.93 204.29L163.04 204.77L163.16 205.25L163.28 205.73L163.39 206.21L163.51 206.69L163.63 207.17L163.75 207.65L163.87 208.13L165.96 207.67L168.04 207.22L170.12 206.78L172.21 206.34L174.29 205.91L176.38 205.49L178.47 205.07L180.55 204.66L182.64 204.26L184.73 203.86L186.83 203.47L188.92 203.09L191.01 202.71L193.1 202.34L195.2 201.98L197.3 201.62L199.39 201.27L201.49 200.93L203.59 200.59L205.69 200.27L207.79 199.94L209.89 199.63L211.99 199.32L214.09 199.02L216.2 198.72L218.3 198.43L220.41 198.15L222.52 197.88L224.63 197.61L226.73 197.35L228.84 197.1L230.96 196.85L233.07 196.61L235.18 196.38L237.29 196.15L239.41 195.93L241.52 195.72L243.64 195.51L245.76 195.32L247.87 195.13L249.11 193.38L250.34 191.65L251.58 189.91L252.83 188.18L254.09 186.45L255.34 184.73L256.61 183.01L257.88 181.3L259.16 179.59L260.44 177.88L261.72 176.18L263.02 174.48L264.32 172.79L265.62 171.1L266.93 169.41L268.25 167.73L269.57 166.05L270.89 164.38L272.22 162.71L273.56 161.05L274.91 159.39L276.26 157.73L277.61 156.08L278.97 154.44L280.34 152.79L281.71 151.16L283.08 149.53L284.47 147.9L285.86 146.28L287.25 144.66L288.65 143.05L290.06 141.44L291.47 139.83L292.88 138.24L294.3 136.64L295.73 135.05L297.17 133.47L298.61 131.89L300.05 130.32L301.5 128.75L301.26 128.53L301.01 128.3L300.77 128.08L300.53 127.85L300.29 127.63L300.05 127.4L299.8 127.18L299.56 126.95L299.32 126.73L299.08 126.5L298.84 126.28L298.61 126.06L298.37 125.83L298.13 125.61L297.89 125.39L297.65 125.17L297.41 124.94L297.18 124.72L296.94 124.5L296.7 124.28L296.47 124.06L296.23 123.84L295.99 123.62L295.76 123.4L295.52 123.19L295.29 122.97L295.05 122.75L294.82 122.54L294.58 122.32L294.35 122.11L294.11 121.89L293.88 121.68L293.64 121.47L293.41 121.25L293.17 121.04L292.94 120.83L292.7 120.62L292.47 120.41L292.23 120.21L292 120L288.32 116.79L284.65 113.67L281 110.65L277.36 107.73L273.74 104.91L270.14 102.19L266.56 99.57L263.01 97.05L259.48 94.63L255.99 92.31L252.52 90.09L249.09 87.97L245.69 85.95L242.33 84.04L239.01 82.23L235.73 80.52L232.5 78.91L229.31 77.41L226.17 76.01L223.08 74.72L220.04 73.53L217.06 72.44L214.14 71.46L211.27 70.59L208.47 69.82L205.73 69.16L203.05 68.6L200.44 68.16L197.91 67.82L195.44 67.58L193.05 67.46L190.74 67.44L188.51 67.53L186.35 67.73ZM318.28 150.04L317.29 151.13L316.3 152.22L315.31 153.32L314.32 154.43L313.33 155.54L312.34 156.66L311.35 157.78L310.36 158.91L309.38 160.05L308.39 161.19L307.4 162.33L306.41 163.48L305.42 164.64L304.43 165.8L303.44 166.96L302.46 168.14L301.47 169.31L300.48 170.49L299.5 171.68L298.51 172.87L297.53 174.07L296.54 175.27L295.56 176.48L294.58 177.69L293.6 178.91L292.61 180.13L291.64 181.36L290.66 182.59L289.68 183.83L288.7 185.07L287.73 186.32L286.76 187.57L285.78 188.83L284.81 190.09L283.84 191.35L282.88 192.63L284.83 192.54L286.78 192.46L288.74 192.38L290.69 192.31L292.65 192.24L294.61 192.18L296.56 192.12L298.52 192.06L300.48 192.01L302.44 191.97L304.39 191.93L306.35 191.9L308.31 191.87L310.27 191.84L312.23 191.82L314.19 191.8L316.14 191.79L318.1 191.78L320.06 191.78L322.02 191.78L323.98 191.79L325.94 191.8L327.9 191.82L329.86 191.84L331.81 191.87L333.77 191.9L335.73 191.93L337.69 191.97L339.65 192.01L341.6 192.06L343.56 192.12L345.52 192.18L347.47 192.24L349.43 192.31L351.39 192.38L353.34 192.46L355.3 192.54L357.25 192.63L356.34 191.4L355.43 190.18L354.51 188.96L353.59 187.75L352.67 186.53L351.74 185.32L350.81 184.11L349.87 182.9L348.93 181.7L347.99 180.5L347.05 179.3L346.1 178.1L345.15 176.9L344.19 175.71L343.23 174.52L342.27 173.33L341.3 172.14L340.33 170.96L339.36 169.78L338.38 168.6L337.4 167.43L336.42 166.26L335.43 165.09L334.44 163.92L333.45 162.75L332.46 161.59L331.46 160.43L330.45 159.28L329.45 158.12L328.44 156.97L327.43 155.82L326.41 154.68L325.39 153.54L324.37 152.4L323.34 151.26L322.32 150.13L321.28 149L320.25 147.88L319.26 148.95L318.28 150.04Z" id="e2IEcz83Y4"></path></defs><g><g><g><use xlink:href="#e2IEcz83Y4" opacity="1" fill="#51bbd7" fill-opacity="1"></use><g><use xlink:href="#e2IEcz83Y4" opacity="1" fill-opacity="0" stroke="#000000" stroke-width="1" stroke-opacity="0"></use></g></g></g></g></svg>